<svg xmlns="http://www.w3.org/2000/svg" viewBox="0 0 248.16 227.16"><defs><style>.cls-1{fill:#fffbee;}</style></defs><title>Asset 13</title><g id="Layer_2" data-name="Layer 2"><g id="Layer_1-2" data-name="Layer 1"><path class="cls-1" d="M67,201.38A7.1,7.1,0,0,1,64.91,203a5.91,5.91,0,0,1-2.3.65,5.79,5.79,0,0,1-2.36-.33,7.08,7.08,0,0,1-3.81-3.42,5.78,5.78,0,0,1-.19-4.68,7.54,7.54,0,0,1,3.44-3.83,6,6,0,0,1,2.31-.65,5.86,5.86,0,0,1,2.37.33,7.09,7.09,0,0,1,3.82,3.42,5.8,5.8,0,0,1,.58,2.31,6,6,0,0,1-.41,2.37A7.11,7.11,0,0,1,67,201.38ZM65.41,200a6,6,0,0,0,1.08-1.64,4.11,4.11,0,0,0,.36-1.65,3.66,3.66,0,0,0-.37-1.57,4.85,4.85,0,0,0-2.59-2.32,3.69,3.69,0,0,0-1.6-.2,4.16,4.16,0,0,0-1.61.52,6.58,6.58,0,0,0-2.6,2.9,4.08,4.08,0,0,0-.35,1.65,3.65,3.65,0,0,0,.38,1.57,4.9,4.9,0,0,0,2.59,2.32,3.63,3.63,0,0,0,1.59.2,4.05,4.05,0,0,0,1.6-.53A6.06,6.06,0,0,0,65.41,200Z"/><path class="cls-1" d="M74.63,214l-1.53-1a.84.84,0,0,1-.43-.78l-.14-5.14a1,1,0,0,0-.1-.44,1.11,1.11,0,0,0-.39-.37l-.95-.62-2.77,4.23-1.71-1.12,6.87-10.51,3.09,2a7.89,7.89,0,0,1,1.65,1.38,4.06,4.06,0,0,1,.84,1.41,2.84,2.84,0,0,1,.1,1.4,3.94,3.94,0,0,1-1.4,2.28,3.44,3.44,0,0,1-1,.55,3.62,3.62,0,0,1-1.2.17,4.66,4.66,0,0,1-1.32-.23,2,2,0,0,1,.19.89Zm-1.37-8.71a4,4,0,0,0,1.12.53,2.45,2.45,0,0,0,1,.08,2,2,0,0,0,.84-.32,2.44,2.44,0,0,0,.66-.69,1.88,1.88,0,0,0,.29-1.69,3.26,3.26,0,0,0-1.43-1.58l-1.39-.91-2.42,3.7Z"/><path class="cls-1" d="M89.84,214.52,87.74,219a7.26,7.26,0,0,1-4.52-.61,7.61,7.61,0,0,1-2.3-1.59,6.13,6.13,0,0,1-1.35-2.09,5.8,5.8,0,0,1-.36-2.4,6.9,6.9,0,0,1,.67-2.55,7.23,7.23,0,0,1,1.51-2.17A5.68,5.68,0,0,1,85.82,206a7.29,7.29,0,0,1,2.63.71,8,8,0,0,1,1.23.7,7.12,7.12,0,0,1,1,.81,5.67,5.67,0,0,1,1.22,1.86l-.92.6a.58.58,0,0,1-.44.09.61.61,0,0,1-.38-.29l-.35-.51a4.6,4.6,0,0,0-.46-.55,4.69,4.69,0,0,0-.67-.57,6.1,6.1,0,0,0-1-.56,4.69,4.69,0,0,0-1.76-.46,3.84,3.84,0,0,0-1.63.27,4.13,4.13,0,0,0-1.41,1,5.73,5.73,0,0,0-1.09,1.62,5.84,5.84,0,0,0-.56,2,4.2,4.2,0,0,0,.2,1.75,3.9,3.9,0,0,0,.9,1.46,5.22,5.22,0,0,0,1.57,1.08,5.28,5.28,0,0,0,1.32.43,6.32,6.32,0,0,0,1.27.08l1.05-2.26-1.59-.74a.43.43,0,0,1-.24-.23.38.38,0,0,1,0-.3l.49-1.05Z"/><path class="cls-1" d="M102,224.78l-1.51-.44a.67.67,0,0,1-.38-.25.89.89,0,0,1-.15-.39l-.22-3-5.19-1.52-1.78,2.37a.84.84,0,0,1-.32.24.66.66,0,0,1-.46,0l-1.51-.44,8.3-10.65,2,.58Zm-2.38-5.6-.37-4.89a12.55,12.55,0,0,1,0-1.42q-.21.37-.41.67l-.37.52L95.52,218Z"/><path class="cls-1" d="M117.94,214.47l-1.65,12.45-1-.14a.9.9,0,0,1-.39-.13.94.94,0,0,1-.27-.31l-5.67-9.69c0,.17,0,.34,0,.5s0,.32,0,.46l-1.08,8.18-1.78-.24,1.65-12.45,1.05.14.22,0,.16.07a.53.53,0,0,1,.13.13l.12.19,5.68,9.7c0-.18,0-.36,0-.53s0-.33.05-.49l1.08-8.12Z"/><path class="cls-1" d="M123.45,227.09l-2,0,.22-12.55,2,0Z"/><path class="cls-1" d="M135.92,214.64a1.08,1.08,0,0,1,0,.34,1.38,1.38,0,0,1-.13.32l-6,10,6.8-.54.13,1.64-9.46.76-.06-.8a.89.89,0,0,1,0-.31,1.28,1.28,0,0,1,.12-.28l6-10-6.56.53-.13-1.64,9.21-.74Z"/><path class="cls-1" d="M151.94,223.32l-1.54.35a.66.66,0,0,1-.45,0,.88.88,0,0,1-.32-.27L148,220.89l-5.27,1.2-.41,2.93a.82.82,0,0,1-.17.37.65.65,0,0,1-.39.24l-1.54.35,2.08-13.34,2-.46Zm-4.81-3.74-2.7-4.09a12.71,12.71,0,0,1-.72-1.22c0,.28,0,.54,0,.78s0,.45-.07.64l-.67,4.85Z"/><path class="cls-1" d="M158.66,209.36,155,210.69l3.68,10.21-1.91.69-3.68-10.21-3.69,1.33-.58-1.6,9.28-3.35Z"/><path class="cls-1" d="M167.57,217.07l-1.85.88-5.4-11.33,1.85-.88Z"/><path class="cls-1" d="M178.88,203.17a7.09,7.09,0,0,1,1,2.42,5.93,5.93,0,0,1,0,2.4,5.83,5.83,0,0,1-1,2.18,7.08,7.08,0,0,1-4.33,2.74,5.78,5.78,0,0,1-4.55-1.09,7.53,7.53,0,0,1-2.75-4.35,6,6,0,0,1,0-2.4,5.87,5.87,0,0,1,1-2.19,7.1,7.1,0,0,1,4.33-2.74,5.78,5.78,0,0,1,2.38.07,6,6,0,0,1,2.17,1A7.11,7.11,0,0,1,178.88,203.17Zm-1.76,1.11a6,6,0,0,0-1.29-1.49,4.09,4.09,0,0,0-1.49-.79,3.63,3.63,0,0,0-1.61-.08,4.85,4.85,0,0,0-2.94,1.86,3.71,3.71,0,0,0-.63,1.49,4.15,4.15,0,0,0,.07,1.69,6.55,6.55,0,0,0,2.08,3.29,4.08,4.08,0,0,0,1.5.78,3.66,3.66,0,0,0,1.61.07,4.91,4.91,0,0,0,2.94-1.86,3.62,3.62,0,0,0,.63-1.48,4.08,4.08,0,0,0-.07-1.68A6.07,6.07,0,0,0,177.12,204.29Z"/><path class="cls-1" d="M185.46,189.23l8.34,9.39-.78.69a.89.89,0,0,1-.36.21.93.93,0,0,1-.42,0l-11-2,.36.35.31.33,5.48,6.17L186,205.52l-8.34-9.39.8-.71.17-.14.16-.08a.54.54,0,0,1,.18,0l.23,0,11,2-.38-.37-.33-.36-5.44-6.12Z"/><path class="cls-1" d="M28.27,77a.38.38,0,0,1,.21-.24l1.08-.51a5.2,5.2,0,0,1,.8,2.22,6.48,6.48,0,0,1-.32,2.7,6.27,6.27,0,0,1-1.2,2.23A5.48,5.48,0,0,1,27,84.78a5.88,5.88,0,0,1-2.3.55,7.61,7.61,0,0,1-2.6-.37,7.23,7.23,0,0,1-2.34-1.2,5.92,5.92,0,0,1-1.56-1.81,5.67,5.67,0,0,1-.68-2.26,6.5,6.5,0,0,1,.3-2.53A6.13,6.13,0,0,1,19,75a6,6,0,0,1,1.66-1.37l.71.92a.76.76,0,0,1,.11.21.43.43,0,0,1,0,.27.7.7,0,0,1-.27.33,6,6,0,0,0-.51.43,4.17,4.17,0,0,0-1.14,1.9,4.26,4.26,0,0,0-.19,1.67,3.56,3.56,0,0,0,.49,1.5A4.23,4.23,0,0,0,21,82.09a5.92,5.92,0,0,0,1.78.88,5.81,5.81,0,0,0,2,.29,4.31,4.31,0,0,0,1.66-.39,3.69,3.69,0,0,0,1.25-1,4,4,0,0,0,.78-1.43,6.82,6.82,0,0,0,.23-.91,3.62,3.62,0,0,0,.05-.78,3.42,3.42,0,0,0-.11-.72,4.3,4.3,0,0,0-.26-.73A.53.53,0,0,1,28.27,77Z"/><path class="cls-1" d="M31.43,61.21a7.11,7.11,0,0,1,2.14,1.5,6,6,0,0,1,1.3,2,5.85,5.85,0,0,1,.37,2.36,7.09,7.09,0,0,1-2.17,4.64,5.78,5.78,0,0,1-4.42,1.54A7.51,7.51,0,0,1,24,71.08a6,6,0,0,1-1.3-2,5.87,5.87,0,0,1-.37-2.36,7.09,7.09,0,0,1,2.17-4.64,5.83,5.83,0,0,1,2-1.23,6,6,0,0,1,2.38-.3A7.1,7.1,0,0,1,31.43,61.21Zm-.88,1.89a6.07,6.07,0,0,0-1.89-.56,4.1,4.1,0,0,0-1.68.14,3.63,3.63,0,0,0-1.4.8,4.84,4.84,0,0,0-1.47,3.15,3.67,3.67,0,0,0,.28,1.59,4.13,4.13,0,0,0,1,1.39,6.55,6.55,0,0,0,3.53,1.65,4.07,4.07,0,0,0,1.68-.15A3.67,3.67,0,0,0,32,70.3a4.5,4.5,0,0,0,1-1.44,4.56,4.56,0,0,0,.45-1.71,3.61,3.61,0,0,0-.27-1.58,4.06,4.06,0,0,0-1-1.38A6.1,6.1,0,0,0,30.55,63.09Z"/><path class="cls-1" d="M35.78,43.07l10.37,7.08-1,1.48L38,46.78l-.37-.27-.39-.31,3.88,7.54a.76.76,0,0,1,0,.86l-.16.24a.76.76,0,0,1-.79.34l-8.48-.83.44.25.4.25,7.1,4.86-1,1.48L28.24,54.09l.86-1.26a1.47,1.47,0,0,1,.28-.32.53.53,0,0,1,.39-.06l8.3.79.57.09.57.13-.33-.5c-.11-.17-.21-.34-.29-.5l-3.77-7.38a.53.53,0,0,1-.09-.39,1.43,1.43,0,0,1,.2-.37Z"/><path class="cls-1" d="M48.85,28.93l9,8.77L56.58,39l-6.16-6-.32-.33-.33-.38,2.52,8.09a.77.77,0,0,1-.17.84l-.2.21a.76.76,0,0,1-.84.19l-8.21-2.28.39.33.35.32,6.16,6-1.25,1.29-9-8.77,1.06-1.09a1.4,1.4,0,0,1,.33-.27.52.52,0,0,1,.4,0l8,2.21.54.18.54.23q-.13-.27-.24-.55c-.08-.18-.14-.37-.2-.55l-2.44-7.92a.53.53,0,0,1,0-.4,1.41,1.41,0,0,1,.26-.33Z"/><path class="cls-1" d="M63.78,31a3.29,3.29,0,0,0,.89-1A2.76,2.76,0,0,0,65,28.91a3,3,0,0,0-.14-1.2,4.18,4.18,0,0,0-.65-1.22l-4.53-6.06,1.63-1.21,4.53,6.06a5.8,5.8,0,0,1,.94,1.85,4.56,4.56,0,0,1-.49,3.73,6,6,0,0,1-3.42,2.55,4.57,4.57,0,0,1-3.72-.59,5.78,5.78,0,0,1-1.51-1.43l-4.53-6.06,1.63-1.22,4.52,6.06a4.21,4.21,0,0,0,1,1,3,3,0,0,0,1.11.48,2.69,2.69,0,0,0,1.18,0A3.27,3.27,0,0,0,63.78,31Z"/><path class="cls-1" d="M75.07,11.25l6,11-.91.5a.89.89,0,0,1-.39.12,1,1,0,0,1-.41-.09l-10.3-4.46.27.42.23.4,4,7.24L72,27.25l-6-11,.93-.51.2-.1.17,0a.47.47,0,0,1,.18,0l.21.08L78,20.16l-.29-.45-.25-.42L73.5,12.11Z"/><path class="cls-1" d="M86.64,19.94l-1.89.79L79.88,9.17l1.89-.79Z"/><path class="cls-1" d="M95.18,5.49l-3.73,1.2L94.78,17l-1.93.62L89.52,7.31l-3.73,1.2L85.26,6.9l9.39-3Z"/><path class="cls-1" d="M105.86,9.27l.91,4.83-2,.38-.91-4.83L97.94,3l1.76-.33a.65.65,0,0,1,.44,0,1.09,1.09,0,0,1,.32.28l3.36,3.94.43.58c.13.18.25.36.36.54a5.16,5.16,0,0,1,.12-.64c.05-.21.12-.44.19-.69l1.67-4.89a1,1,0,0,1,.19-.36.64.64,0,0,1,.39-.22L109,.91Z"/><path class="cls-1" d="M130.34,6.32a6.92,6.92,0,0,1-.46,2.55,5.62,5.62,0,0,1-3.27,3.26,6.92,6.92,0,0,1-2.57.45l-4.74,0,0-12.55,4.74,0a6.93,6.93,0,0,1,2.57.47,5.62,5.62,0,0,1,3.24,3.28A6.91,6.91,0,0,1,130.34,6.32Zm-2.08,0A6,6,0,0,0,128,4.37a4,4,0,0,0-.83-1.46A3.64,3.64,0,0,0,125.82,2a4.57,4.57,0,0,0-1.74-.32h-2.69l0,9.26H124a4.63,4.63,0,0,0,1.75-.31,3.56,3.56,0,0,0,1.32-.91A4.08,4.08,0,0,0,128,8.26,6.06,6.06,0,0,0,128.25,6.31Z"/><path class="cls-1" d="M141.41,12.35,141.18,14l-7.76-1L135.07.51l7.76,1-.22,1.63-5.73-.76-.5,3.75,4.58.6-.21,1.58-4.58-.61-.51,3.85Z"/><path class="cls-1" d="M158.08,5.19,150,16l-1.78-.47L146.45,2.14l1.58.41a.67.67,0,0,1,.39.24.91.91,0,0,1,.16.39l1,8.74a13.22,13.22,0,0,1,.06,1.66q.21-.41.41-.77a7.65,7.65,0,0,1,.42-.66l5.2-7.1a.83.83,0,0,1,.32-.25.65.65,0,0,1,.46,0Z"/><path class="cls-1" d="M165.11,19.6l-.61,1.53-7.28-2.88,4.61-11.68,7.28,2.88L168.5,11l-5.38-2.12-1.39,3.52,4.3,1.7-.59,1.48-4.3-1.7-1.43,3.61Z"/><path class="cls-1" d="M174.46,24.29l-.79,1.52-6.43-3.35L173,11.33l1.81.94-5,9.62Z"/><path class="cls-1" d="M188.9,28.4a7.09,7.09,0,0,1-1.83,1.86,6,6,0,0,1-2.2.95,5.84,5.84,0,0,1-2.38,0,7.1,7.1,0,0,1-4.22-2.9,5.79,5.79,0,0,1-.79-4.62,7.53,7.53,0,0,1,2.91-4.24,6,6,0,0,1,2.21-.95,5.86,5.86,0,0,1,2.39,0,7.1,7.1,0,0,1,4.22,2.9,5.81,5.81,0,0,1,.88,2.22A6,6,0,0,1,190,26,7.1,7.1,0,0,1,188.9,28.4Zm-1.72-1.18a6,6,0,0,0,.86-1.77,4.12,4.12,0,0,0,.14-1.68,3.66,3.66,0,0,0-.56-1.51,4.85,4.85,0,0,0-2.87-2,3.68,3.68,0,0,0-1.62,0,4.13,4.13,0,0,0-1.53.73,6.56,6.56,0,0,0-2.21,3.21,4.1,4.1,0,0,0-.13,1.68,3.68,3.68,0,0,0,.57,1.51,4.91,4.91,0,0,0,2.87,2,3.61,3.61,0,0,0,1.61,0,4.05,4.05,0,0,0,1.52-.73A6.06,6.06,0,0,0,187.18,27.22Z"/><path class="cls-1" d="M199.05,29a7.06,7.06,0,0,1,1.38,1.65,4.09,4.09,0,0,1,.56,1.6,3.2,3.2,0,0,1-.19,1.51,4.36,4.36,0,0,1-.87,1.38,4.29,4.29,0,0,1-1.33,1,3.44,3.44,0,0,1-1.53.34,4.23,4.23,0,0,1-1.67-.39,6.5,6.5,0,0,1-1.74-1.17l-1.38-1.25L189.23,37l-1.51-1.37,8.44-9.29Zm-4.3,4.74a3.76,3.76,0,0,0,1,.68,2.35,2.35,0,0,0,1,.22,2,2,0,0,0,.9-.22,2.8,2.8,0,0,0,.81-.63,2.7,2.7,0,0,0,.54-.84,1.92,1.92,0,0,0,.12-.89,2.28,2.28,0,0,0-.32-.92,4.12,4.12,0,0,0-.79-.94l-1.38-1.25-3.23,3.56Z"/><path class="cls-1" d="M214.28,45.67l-9.68,8-1.14-1.39,6.64-5.47.36-.28.41-.29-8.32,1.63a.77.77,0,0,1-.82-.26l-.18-.22a.76.76,0,0,1-.1-.85l3.16-7.92-.37.35-.35.31-6.64,5.48-1.14-1.39,9.69-8,1,1.18a1.47,1.47,0,0,1,.23.35.53.53,0,0,1-.05.39L203.86,45c-.07.17-.15.35-.24.52s-.18.34-.28.51l.57-.18.56-.14,8.14-1.57a.53.53,0,0,1,.4,0,1.43,1.43,0,0,1,.3.29Z"/><path class="cls-1" d="M212.12,62.72l-1.41.85-4.08-6.68,10.71-6.55L221.42,57l-1.41.86L217,53l-3.23,2,2.41,3.94-1.36.83-2.41-3.94-3.31,2Z"/><path class="cls-1" d="M227.87,70.52l-11.45,5.15-.42-.95a.88.88,0,0,1-.09-.4.93.93,0,0,1,.12-.4L221.28,64l-.44.24-.41.2-7.53,3.39-.74-1.64L223.61,61l.44,1a1.83,1.83,0,0,1,.08.21.68.68,0,0,1,0,.17.5.5,0,0,1,0,.18,1.66,1.66,0,0,1-.1.21l-5.25,9.94.47-.25.44-.21,7.46-3.36Z"/><path class="cls-1" d="M230.58,84.38l-1.14-3.74L219.06,83.8l-.59-1.94,10.39-3.16-1.14-3.75,1.63-.5,2.87,9.44Z"/><path class="cls-1" d="M73,100.67H64.14V126h-6.3v-25.3H49V95.61H73Z"/><path class="cls-1" d="M110.28,110.78a16.7,16.7,0,0,1-1.12,6.17,14.44,14.44,0,0,1-3.16,4.92,14.61,14.61,0,0,1-4.91,3.25,17.71,17.71,0,0,1-12.72,0,14.72,14.72,0,0,1-4.92-3.25,14.38,14.38,0,0,1-3.17-4.92,17.56,17.56,0,0,1,0-12.33,14.41,14.41,0,0,1,3.17-4.91,14.72,14.72,0,0,1,4.92-3.25,17.7,17.7,0,0,1,12.72,0,14.33,14.33,0,0,1,8.07,8.18A16.57,16.57,0,0,1,110.28,110.78Zm-6.42,0a13.55,13.55,0,0,0-.63-4.28,9.08,9.08,0,0,0-1.81-3.22,7.78,7.78,0,0,0-2.87-2,10.78,10.78,0,0,0-7.65,0,7.76,7.76,0,0,0-2.88,2,9.07,9.07,0,0,0-1.81,3.22,15,15,0,0,0,0,8.58A9,9,0,0,0,88,118.29a7.82,7.82,0,0,0,2.88,2,10.78,10.78,0,0,0,7.65,0,7.85,7.85,0,0,0,2.87-2,9,9,0,0,0,1.81-3.21A13.63,13.63,0,0,0,103.85,110.78Z"/><path class="cls-1" d="M140.49,100.67h-8.87V126h-6.3v-25.3h-8.87V95.61h24Z"/><path class="cls-1" d="M172.9,126H168a2.15,2.15,0,0,1-1.33-.39,2.35,2.35,0,0,1-.76-1l-2.05-5.8H151.79l-2.05,5.8a2.39,2.39,0,0,1-.73,1,2,2,0,0,1-1.32.43h-4.92l11.86-30.36h6.42Zm-10.55-11.53-3.29-9.29q-.29-.73-.62-1.72t-.62-2.13q-.29,1.17-.62,2.17t-.62,1.73l-3.26,9.25Z"/><path class="cls-1" d="M198.74,120.86V126h-18V95.61H187v25.26Z"/><path class="cls-1" d="M24.21,166.07H18.54a2.46,2.46,0,0,1-2.3-1.21l-5.78-9.31a2.44,2.44,0,0,0-.78-.8,2.56,2.56,0,0,0-1.27-.25H6.28v11.57H0V135.71H9.54a19.62,19.62,0,0,1,5.44.66,10.47,10.47,0,0,1,3.7,1.83A7,7,0,0,1,20.8,141a9.27,9.27,0,0,1,.67,3.57,9.4,9.4,0,0,1-.43,2.86,8.42,8.42,0,0,1-1.25,2.46,9,9,0,0,1-2,2,10.4,10.4,0,0,1-2.72,1.38,6.07,6.07,0,0,1,1.13.81,5.5,5.5,0,0,1,.94,1.12Zm-14.71-16a8,8,0,0,0,2.64-.39A5,5,0,0,0,14,148.63a4.16,4.16,0,0,0,1-1.6,5.87,5.87,0,0,0,.33-2,4.11,4.11,0,0,0-1.43-3.35,6.71,6.71,0,0,0-4.36-1.19H6.28v9.6Z"/><path class="cls-1" d="M38.52,140.63v7.8H48.65v4.75H38.52v8h13v4.92H32.2V135.71H51.54v4.92Z"/><path class="cls-1" d="M77.69,141.53a2.38,2.38,0,0,1-.6.7,1.31,1.31,0,0,1-.78.22,1.94,1.94,0,0,1-1-.32q-.53-.32-1.24-.7a12.15,12.15,0,0,0-1.63-.7,6.49,6.49,0,0,0-2.16-.33,4.76,4.76,0,0,0-3.26,1,3.25,3.25,0,0,0-1.09,2.54,2.39,2.39,0,0,0,.6,1.66,5.17,5.17,0,0,0,1.57,1.14,14.39,14.39,0,0,0,2.21.86q1.23.38,2.53.83a22.49,22.49,0,0,1,2.53,1.06A8.94,8.94,0,0,1,77.57,151a7,7,0,0,1,1.57,2.25,7.87,7.87,0,0,1,.6,3.23,10.38,10.38,0,0,1-.72,3.88,9.21,9.21,0,0,1-2.08,3.16,9.64,9.64,0,0,1-3.36,2.12,12.47,12.47,0,0,1-4.53.77,14.29,14.29,0,0,1-2.88-.29,16.45,16.45,0,0,1-2.76-.82,15.19,15.19,0,0,1-2.5-1.25,11,11,0,0,1-2.05-1.63l1.84-3a1.86,1.86,0,0,1,.61-.55,1.55,1.55,0,0,1,.8-.22,2.17,2.17,0,0,1,1.19.42q.63.42,1.44.92a11.65,11.65,0,0,0,1.89.92,7.13,7.13,0,0,0,2.58.42,5.17,5.17,0,0,0,3.4-1,3.68,3.68,0,0,0,1.2-3,2.8,2.8,0,0,0-.6-1.86,4.8,4.8,0,0,0-1.56-1.19,12.38,12.38,0,0,0-2.2-.83q-1.23-.34-2.53-.76a20.87,20.87,0,0,1-2.53-1,7.81,7.81,0,0,1-2.2-1.55,7.32,7.32,0,0,1-1.56-2.38,9.18,9.18,0,0,1-.6-3.54,8.4,8.4,0,0,1,2.64-6.11,9.86,9.86,0,0,1,3.19-2,11.7,11.7,0,0,1,4.34-.75,14.75,14.75,0,0,1,5.07.85,11.39,11.39,0,0,1,3.94,2.35Z"/><path class="cls-1" d="M118.66,150.88a16.7,16.7,0,0,1-1.12,6.17,14.44,14.44,0,0,1-3.16,4.92,14.61,14.61,0,0,1-4.91,3.25,17.71,17.71,0,0,1-12.72,0A14.72,14.72,0,0,1,91.83,162a14.38,14.38,0,0,1-3.17-4.92,17.56,17.56,0,0,1,0-12.33,14.41,14.41,0,0,1,3.17-4.91,14.72,14.72,0,0,1,4.92-3.25,17.7,17.7,0,0,1,12.72,0,14.33,14.33,0,0,1,8.07,8.18A16.57,16.57,0,0,1,118.66,150.88Zm-6.42,0a13.55,13.55,0,0,0-.63-4.28,9.08,9.08,0,0,0-1.81-3.22,7.78,7.78,0,0,0-2.87-2,10.78,10.78,0,0,0-7.65,0,7.76,7.76,0,0,0-2.88,2,9.07,9.07,0,0,0-1.81,3.22,15,15,0,0,0,0,8.58,9,9,0,0,0,1.81,3.21,7.82,7.82,0,0,0,2.88,2,10.78,10.78,0,0,0,7.65,0,7.85,7.85,0,0,0,2.87-2,9,9,0,0,0,1.81-3.21A13.63,13.63,0,0,0,112.23,150.88Z"/><path class="cls-1" d="M140.71,161.05a7,7,0,0,0,2.74-.51,5.64,5.64,0,0,0,2.05-1.45,6.37,6.37,0,0,0,1.28-2.28,9.63,9.63,0,0,0,.44-3V135.71h6.28v18.08a14,14,0,0,1-.89,5.07,11.44,11.44,0,0,1-2.54,4,11.58,11.58,0,0,1-4,2.62,15.63,15.63,0,0,1-10.68,0,11.56,11.56,0,0,1-4-2.62,11.43,11.43,0,0,1-2.54-4,14,14,0,0,1-.89-5.07V135.71h6.28v18.08a9.63,9.63,0,0,0,.44,3,6.37,6.37,0,0,0,1.28,2.28,5.63,5.63,0,0,0,2.05,1.45A7,7,0,0,0,140.71,161.05Z"/><path class="cls-1" d="M188.71,166.07H183a2.46,2.46,0,0,1-2.3-1.21L175,155.55a2.44,2.44,0,0,0-.78-.8,2.56,2.56,0,0,0-1.27-.25h-2.13v11.57H164.5V135.71H174a19.62,19.62,0,0,1,5.44.66,10.47,10.47,0,0,1,3.7,1.83A7,7,0,0,1,185.3,141a9.27,9.27,0,0,1,.67,3.57,9.4,9.4,0,0,1-.43,2.86,8.42,8.42,0,0,1-1.25,2.46,9,9,0,0,1-2,2,10.4,10.4,0,0,1-2.72,1.38,6.07,6.07,0,0,1,1.13.81,5.5,5.5,0,0,1,.94,1.12Zm-14.71-16a8,8,0,0,0,2.64-.39,5,5,0,0,0,1.82-1.07,4.16,4.16,0,0,0,1-1.6,5.87,5.87,0,0,0,.33-2,4.11,4.11,0,0,0-1.43-3.35,6.71,6.71,0,0,0-4.36-1.19h-3.26v9.6Z"/><path class="cls-1" d="M216.9,158.6a1.16,1.16,0,0,1,.88.38l2.49,2.66a11.85,11.85,0,0,1-4.57,3.56,15.92,15.92,0,0,1-6.5,1.21,15.46,15.46,0,0,1-6.13-1.16,13.24,13.24,0,0,1-4.62-3.23,14.37,14.37,0,0,1-2.93-4.92,19.23,19.23,0,0,1-.53-10.51,15.11,15.11,0,0,1,1.43-3.76,14.52,14.52,0,0,1,2.27-3.1,13.69,13.69,0,0,1,3-2.35,14.44,14.44,0,0,1,3.65-1.49,16.81,16.81,0,0,1,4.22-.51,16.58,16.58,0,0,1,3.17.29,15.43,15.43,0,0,1,2.79.82,12.87,12.87,0,0,1,2.4,1.27,13.42,13.42,0,0,1,2,1.62l-2.11,2.89a2,2,0,0,1-.48.48,1.35,1.35,0,0,1-.8.21,1.77,1.77,0,0,1-1-.36q-.51-.36-1.26-.79a9.08,9.08,0,0,0-1.86-.8,9.51,9.51,0,0,0-2.84-.36,8.69,8.69,0,0,0-3.49.69,7.59,7.59,0,0,0-2.73,2,9.19,9.19,0,0,0-1.77,3.21,13.8,13.8,0,0,0-.63,4.33,13,13,0,0,0,.68,4.36,9.58,9.58,0,0,0,1.86,3.23,7.84,7.84,0,0,0,2.76,2,8.46,8.46,0,0,0,3.38.68,16.28,16.28,0,0,0,1.94-.1,8.06,8.06,0,0,0,1.61-.36,7.15,7.15,0,0,0,1.4-.65,8.63,8.63,0,0,0,1.33-1,2.56,2.56,0,0,1,.48-.31A1.19,1.19,0,0,1,216.9,158.6Z"/><path class="cls-1" d="M235.14,140.63v7.8h10.13v4.75H235.14v8h13v4.92H228.82V135.71h19.33v4.92Z"/><path class="cls-1" d="M143.33,50.14l-5.49-1.47a18.4,18.4,0,0,1-10.67-7.75l-3.09-4.76L121,40.92a18.4,18.4,0,0,1-10.67,7.75l-5.49,1.47,3.57,4.41a18.4,18.4,0,0,1,4.08,12.55l-.3,5.67,5.3-2a18.4,18.4,0,0,1,13.19,0l5.3,2-.3-5.67a18.4,18.4,0,0,1,4.08-12.55ZM124.08,62.47a5.8,5.8,0,1,1,5.8-5.8A5.8,5.8,0,0,1,124.08,62.47Z"/></g></g></svg>